<?xml version='1.0' encoding='UTF-8' standalone='yes'?>
<svg xmlns="http://www.w3.org/2000/svg" width="500" height="500" viewBox="0 0 500 500" version="1.2" baseProfile="tiny-ps"><path d="m 80,0 h 340 c 44.32,0 80,35.68 80,80 v 340 c 0,44.32 -35.68,80 -80,80 H 80 C 35.68,500 0,464.32 0,420 V 80 C 0,35.68 35.68,0 80,0 Z" fill="#0f9d2a"/>
  <g fill="#ffffff">
    <path d="m 124.31055,210 h -1.23047 l -17.26172,-40.53516 v 37.72266 l 6.32812,0.94922 V 210 H 96.080078 v -1.86328 l 6.046872,-0.94922 v -41.55469 l -6.046872,-0.91406 v -1.86328 h 14.273442 l 15.32812,35.85937 16.73438,-35.85937 h 13.5 v 1.86328 l -6.04688,0.91406 v 41.55469 l 6.04688,0.94922 V 210 h -19.125 v -1.86328 l 6.32812,-0.94922 v -37.72266 z"/>
    <path d="m 172.97852,186.375 q 0,-24.04688 23.02734,-24.04688 11.39062,0 17.22656,6.11719 5.83594,6.08203 5.83594,17.92969 0,12.02344 -5.90625,18.17578 -5.90625,6.15234 -17.15625,6.15234 -11.21484,0 -17.12109,-6.11718 -5.90625,-6.15235 -5.90625,-18.21094 z m 7.34765,0 q 0,11.35547 3.79688,16.45312 3.79687,5.09766 11.88281,5.09766 8.05078,0 11.88281,-5.09766 3.83203,-5.09765 3.83203,-16.45312 0,-11.28516 -3.83203,-16.24219 -3.79687,-4.99219 -11.88281,-4.99219 -8.12109,0 -11.91797,4.99219 -3.76172,4.95703 -3.76172,16.24219 z"/>
    <path d="m 274.62695,165.63281 -6.32812,-0.91406 v -1.86328 h 16.0664 v 1.86328 l -6.04687,0.91406 V 210 h -3.41016 l -29.07422,-42.39844 v 39.58594 l 6.32813,0.94922 V 210 H 236.0957 v -1.86328 l 6.04688,-0.94922 v -41.55469 l -6.04688,-0.91406 v -1.86328 h 14.27344 l 24.25781,34.91015 z"/>
    <path d="m 300.0918,208.13672 6.04687,-0.94922 v -41.55469 l -6.04687,-0.91406 v -1.86328 h 35.36718 v 11.28515 h -2.32031 l -1.125,-7.6289 q -3.9375,-0.49219 -11.39062,-0.49219 h -7.69922 v 18.42188 h 12.72656 l 1.08984,-5.625 h 2.25 v 14.48437 h -2.25 l -1.08984,-5.69531 h -12.72656 v 19.23047 h 9.28125 q 9.07031,0 11.88281,-0.5625 l 2.00391,-8.71875 h 2.32031 L 337.74414,210 H 300.0918 Z"/>
    <path d="m 383.45898,191.4375 v 15.75 l 7.48829,0.94922 V 210 h -21.76172 v -1.86328 l 7.48828,-0.94922 v -15.53906 l -16.5586,-26.01563 -5.30859,-0.91406 v -1.86328 h 19.93359 v 1.86328 l -6.32812,0.91406 13.53516,21.76172 12.86718,-21.76172 -5.97656,-0.91406 v -1.86328 h 15.32813 v 1.86328 l -5.16797,0.91406 z"/>
  </g>
  <path d="M 110,245 H 390" stroke="#ffffff" stroke-width="4"/>
  <g fill="#ffffff">
    <path d="m 98.869141,302.30859 h 2.285159 l 1.23047,6.36328 q 1.30078,1.65235 4.46484,2.91797 3.19922,1.26563 6.29297,1.26563 4.92187,0 7.66406,-2.4961 2.77734,-2.53125 2.77734,-6.96093 0,-2.53125 -1.08984,-4.1836 -1.05469,-1.65234 -2.8125,-2.77734 -1.72266,-1.16016 -3.9375,-1.93359 -2.21484,-0.8086 -4.57031,-1.61719 -2.32031,-0.8086 -4.53516,-1.79297 -2.21484,-0.98438 -3.97265,-2.49609 -1.72266,-1.51172 -2.812504,-3.72657 -1.054688,-2.25 -1.054688,-5.51953 0,-5.625 4.218752,-8.82422 4.21875,-3.19922 11.70703,-3.19922 5.69531,0 12.375,1.51172 v 9.8086 h -2.28516 l -1.23047,-5.76563 q -3.58593,-2.60156 -8.85937,-2.60156 -4.71094,0 -7.38281,1.93359 -2.63672,1.89844 -2.63672,5.27344 0,2.28516 1.05469,3.79688 1.08984,1.51171 2.8125,2.60156 1.75781,1.05469 3.97265,1.82812 2.25,0.77344 4.57031,1.61719 2.35547,0.80859 4.57032,1.86328 2.25,1.01953 3.97265,2.63672 1.75782,1.58203 2.8125,3.90234 1.08985,2.28516 1.08985,5.66016 0,6.82031 -4.1836,10.58203 -4.18359,3.72656 -12.05859,3.72656 -3.79688,0 -7.62891,-0.66796 -3.83203,-0.66797 -6.820309,-1.82813 z"/>
    <path d="m 160.93164,296.50781 v 15.67969 l 7.48828,0.94922 V 315 h -19.86328 v -1.86328 l 5.58984,-0.94922 v -41.55469 l -6.04687,-0.91406 v -1.86328 h 17.78906 q 17.29688,0 17.29688,13.88672 0,7.24218 -4.39453,11.0039 -4.35938,3.76172 -12.55079,3.76172 z m 15.25781,-14.69531 q 0,-5.80078 -2.70703,-8.29688 -2.70703,-2.49609 -9.10547,-2.49609 h -3.44531 v 22.32422 h 3.65625 q 5.94141,0 8.75391,-2.70703 2.84765,-2.70703 2.84765,-8.82422 z"/>
    <path d="m 220.25195,269.71875 -7.27734,0.91406 v 41.34375 h 9.28125 q 7.48828,0 11.00391,-0.70312 l 2.17968,-9.8086 h 2.28516 L 237.0918,315 h -36.94922 v -1.86328 l 6.04687,-0.94922 v -41.55469 l -6.04687,-0.91406 v -1.86328 h 20.10937 z"/>
    <path d="M 270.25586,313.13672 V 315 h -15.50391 v -1.86328 l 5.34375,-0.94922 16.06641,-44.71875 h 6.67969 l 16.69922,44.71875 5.97656,0.94922 V 315 h -19.9336 v -1.86328 l 6.32813,-0.94922 -4.67578,-13.60547 h -18.5625 l -4.7461,13.60547 z m 7.55859,-40.60547 -8.08593,22.88672 h 16.41796 z"/>
    <path d="m 333.44336,312.1875 6.04687,0.94922 V 315 h -18.84375 v -1.86328 l 6.04688,-0.94922 v -41.55469 l -6.04688,-0.91406 v -1.86328 h 18.84375 v 1.86328 l -6.04687,0.91406 z"/>
    <path d="m 394.62695,270.63281 -6.32812,-0.91406 v -1.86328 h 16.0664 v 1.86328 l -6.04687,0.91406 V 315 h -3.41016 l -29.07422,-42.39844 v 39.58594 l 6.32813,0.94922 V 315 H 356.0957 v -1.86328 l 6.04688,-0.94922 v -41.55469 l -6.04688,-0.91406 v -1.86328 h 14.27344 l 24.25781,34.91015 z"/>
  </g>
</svg>